<svg id="Layer_1" data-name="Layer 1" xmlns="http://www.w3.org/2000/svg" viewBox="0 0 320.45 115.17"><title>Genshin Impact logo - Brandlogos.net</title><path d="M356.38,345.93a3.5,3.5,0,0,0-1.1.14,153.47,153.47,0,0,0-16.36,4.83,51.48,51.48,0,0,0-11.43,5.56,42.29,42.29,0,0,0-4.13,3.13,1.9,1.9,0,0,0-.73,1c.42,2.58,2.87,4,5,5a21.5,21.5,0,0,0,11.26,2.09c-1.14-1-2.73-1.13-3.94-2-.49-.37-.5-1-.63-1.57-1.18.23-2.3.69-3.47,1,1.08-.66,2.25-1.15,3.37-1.74,6-2.57,12.47-3.68,18.89-4.56,4.48-.49,9-.64,13.38-2-.35-1-.53-2.4-1.78-2.55-2.7-1.41-4-4.31-5.55-6.77A3.27,3.27,0,0,0,356.38,345.93Z" transform="translate(-223.78 -326.42)"/><path d="M411.82,345.93a3.13,3.13,0,0,0-2.33.86,18.74,18.74,0,0,0-2,3.11,11.86,11.86,0,0,1-3.8,4.21c-.42.27-1.05.22-1.3.72a5.93,5.93,0,0,0-.74,2c4.34,1.29,8.88,1.43,13.35,2,7.08.89,14.24,2.19,20.69,5.38l1.65.9c-1.17-.3-2.33-.69-3.49-1-.19.58-.21,1.32-.78,1.68-1.19.8-2.75,1-3.83,1.93a17.4,17.4,0,0,0,5.51-.27c3.53-.69,7.12-2,9.7-4.6h0a5.42,5.42,0,0,0,1-2.6,44.33,44.33,0,0,0-14.35-8.63A147,147,0,0,0,413,346.1a4.43,4.43,0,0,0-1.15-.17Z" transform="translate(-223.78 -326.42)"/><path d="M384,326.42a.52.52,0,0,0-.54.49c-1,3.35-1.92,6.82-3.84,9.8a7.81,7.81,0,0,1-2.82,2.6,43.5,43.5,0,0,1-8.73,3.35,2.73,2.73,0,0,0-1.19.76,3.31,3.31,0,0,0,1.14.71c3.2,1,6.51,1.91,9.37,3.73a10.22,10.22,0,0,1,3.52,4.6h0a70.72,70.72,0,0,1,2.56,7.54c.22.73,1.1.31,1.11-.3a70.58,70.58,0,0,1,2.38-7.16l-.06-.17.2-.06a21.32,21.32,0,0,1,1.64-2.75,9.26,9.26,0,0,1,3.27-2.54l1.34-.63c2.13-.88,4.33-1.56,6.54-2.24.43-.19,1.16-.32,1-1a3.92,3.92,0,0,0-1.38-.66,39.78,39.78,0,0,1-8.46-3.28,7.74,7.74,0,0,1-2.78-2.65c-1.86-3-2.78-6.37-3.76-9.68a.57.57,0,0,0-.55-.5Z" transform="translate(-223.78 -326.42)"/><path d="M254.41,348.46a29,29,0,0,0-23.58,11.67,33.59,33.59,0,0,0-5.41,10.32,35,35,0,0,0,.63,23h0a32.18,32.18,0,0,0,3.24,6.38c.19.19.29.63.6.62l-.14,0a32.53,32.53,0,0,0,6.35,6.82h.08a27.6,27.6,0,0,0,7.6,4.4A29.14,29.14,0,0,0,256,413.66c6.74-.25,13.65-1.58,19.47-5.11a18.63,18.63,0,0,0,4.79-3.68c0-1.44,0-2.87,0-4.3,0-2.25,0-4.51,0-6.76.09-1.47-.15-3,.45-4.4l-.05.07a6.13,6.13,0,0,1,2.7-2.64c1-.58,2.38-.59,3.31-1.37,0-.16,0-.47,0-.63a17.3,17.3,0,0,0-2.34-.07H255.75c-.57-.15-1.28.38-.84,1a6.16,6.16,0,0,0,2.55,1,11.13,11.13,0,0,1,6.7,3.85,6.89,6.89,0,0,1,1,3.14c0,3.35,0,6.7,0,10.06a14.3,14.3,0,0,1-.87,5.1c-1.35,1.48-3.55.85-5.31.94a15.85,15.85,0,0,1-8.18-3.86,24,24,0,0,1-5.18-6.7,34.83,34.83,0,0,1-2.76-7.15c-.35-1.44-.63-2.9-.87-4.36a49.06,49.06,0,0,1-.34-7.85,44,44,0,0,1,1.65-9.73h0a31.07,31.07,0,0,1,4.79-9.64,21.33,21.33,0,0,1,4.78-4.5A13.38,13.38,0,0,1,263.49,354c3.89.89,7.12,3.56,9.52,6.66a30.44,30.44,0,0,1,3.78,6.81,36,36,0,0,1,1.15,3.43,4.21,4.21,0,0,0,.89,2.06c1-1.79.76-3.91,1-5.86s.16-3.94.16-5.9a20.76,20.76,0,0,0-.6-5.93,20,20,0,0,1-10-2.88,31.14,31.14,0,0,0-14.94-3.92Z" transform="translate(-223.78 -326.42)"/><path d="M284.29,369h-.49c1.26,1.26,3,2.11,3.83,3.74,1.22,2.32,1.22,5,1.18,7.58,0,2.17,0,4.33,0,6.5,0,2.33,0,4.66,0,7a33.58,33.58,0,0,1,3.87-3.27,39.83,39.83,0,0,1,6-3.55q0-3.19,0-6.39c0-1.22-.06-2.44,0-3.65a2.27,2.27,0,0,1,2.41-1.89c2.38,0,4.75,0,7.13,0a8.72,8.72,0,0,1,5.33,2.22,15.07,15.07,0,0,1,3.85,6.25l.31-.37a20.47,20.47,0,0,0-.37-6,43.17,43.17,0,0,0-1.58-5.53,184.63,184.63,0,0,1-20.7-.69c-3.16-.43-6.28-1.11-9.39-1.79a6.74,6.74,0,0,0-1.46-.18Z" transform="translate(-223.78 -326.42)"/><path d="M311,385.64c-.71,0-1.42.09-2.1.14A38,38,0,0,0,290,393.93a32,32,0,0,0-4.86,5.3,30.83,30.83,0,0,0-3.05,5.31A63.34,63.34,0,0,1,288.3,401l.52-.23c0,.35,0,.69,0,1a12.36,12.36,0,0,1-.82,5.12l.08.19-.24.07c-1.22,2.44-3.42,4.15-5.41,5.93a20.57,20.57,0,0,0,4.46-.72,57.42,57.42,0,0,1,12-1.13c6.22,0,12.44,0,18.66,0a40.66,40.66,0,0,0,1.83-6.22,28,28,0,0,0,.44-5c0-.43,0-1-.49-1.2a15.77,15.77,0,0,1-3.69,6,9.8,9.8,0,0,1-6.51,2.82q-4.14,0-8.27,0a2.68,2.68,0,0,1-1.73-.81,3.68,3.68,0,0,1-.43-1.65c0-1.49,0-3,0-4.45,0-1.26,0-2.53,0-3.79l1.32-.33q1.44-.32,2.9-.6a89.24,89.24,0,0,1,15.11-1.3,4.69,4.69,0,0,0,.86-.14,4.15,4.15,0,0,0-1.62-2.11c-.92-.54-2-.76-2.88-1.35-1.39-1.19-1.15-3.25-.83-4.85a4.59,4.59,0,0,0-2.58-.64Z" transform="translate(-223.78 -326.42)"/><path d="M355.67,371.62q-4.39,0-8.78,0c-.44.86.79,1.08,1.31,1.4,2.1.91,2.64,3.46,2.45,5.53,0,1.3,0,2.61,0,3.91,0,3.52,0,7,0,10.56,0,1,0,2.09,0,3.14l-1.31-1.67c-1.7-2.22-3.45-4.4-5.15-6.61l-3.17-4-2.92-3.74c-2.21-2.84-4.43-5.66-6.64-8.49-3.54,0-7.08,0-10.61,0v.65c.87.69,2.12.89,2.76,1.88,1.39,1.73.93,4,1,6.08,0,1.82,0,3.63,0,5.45,0,1.63,0,3.26,0,4.89s0,3.18,0,4.77c0,2.32,0,4.64,0,7a18.71,18.71,0,0,1-.3,5.13,5.32,5.32,0,0,1-1.26,1.78,18.59,18.59,0,0,1-2,1.14c-.33.17-.18.56-.17.84,5.85,0,11.71,0,17.56,0,.19-.93-.86-1.1-1.46-1.45a4.36,4.36,0,0,1-2.21-2.69,43.6,43.6,0,0,1-.2-5.86c0-2,0-3.95,0-5.92,0-1.27,0-2.53,0-3.8,0-1.07,0-2.14,0-3.2,0-1.45,0-2.9,0-4.35l0-.58.14-.07c.58.85,1.24,1.64,1.86,2.46s1.44,1.85,2.17,2.76c1.33,1.71,2.66,3.42,4,5.12q1.69,2.18,3.39,4.35c1.72,2.16,3.37,4.39,5.13,6.53,1.43,1.92,2.94,3.78,4.39,5.68a25.6,25.6,0,0,0,2.71,2.94,9.53,9.53,0,0,0,5.4,2.39,16.89,16.89,0,0,0-1.4-2.61l-.19-.08.1-.11c-.35-1.24-.87-2.44-1.12-3.72a32,32,0,0,1-.42-3.38c-.13-2.26-.07-4.53-.09-6.8,0-2.51,0-5,0-7.54,0-2.35,0-11.89,0-13.41-.07-1.82.58-3.91,2.34-4.75.61-.37,1.67-.51,1.56-1.46q-4.39,0-8.78,0Z" transform="translate(-223.78 -326.42)"/><path d="M382.58,363.12a15.85,15.85,0,0,0-2.44.2,15.06,15.06,0,0,0-10.17,6,13.29,13.29,0,0,0-1.88,4.13v0a15,15,0,0,0,.63,8.57h0a14.72,14.72,0,0,0,3.1,5h0a37.15,37.15,0,0,0,5.73,4.33c4.07,2.94,8.34,5.57,12.32,8.64a6.69,6.69,0,0,1,2.12,3.87,9.71,9.71,0,0,1-.6,3.81,6.67,6.67,0,0,1-3.27,3.27,9.38,9.38,0,0,1-5.36.55,25.27,25.27,0,0,1-2.53-.55,18,18,0,0,1-4.6-2.24c-.49-.38-1-.77-1.46-1.16l-.67-.59c-.44-.45-.87-.9-1.3-1.36a29.53,29.53,0,0,1-2.46-3.28c-1.19-1.74-1.94-3.76-3.23-5.43a21.18,21.18,0,0,0-.51,5.41c0,.55,0,1.11.07,1.66a29,29,0,0,0,.66,4.84,12.13,12.13,0,0,0,2.71,5.55,8.39,8.39,0,0,1,7.07-.31,28.54,28.54,0,0,0,11.54,1.07,20.72,20.72,0,0,0,5.24-1.25,13.2,13.2,0,0,0,5.75-4.56,14.69,14.69,0,0,0,2.35-6.4l0,0a28.14,28.14,0,0,0,.21-3.77,15.48,15.48,0,0,0-2.17-7.65,21.24,21.24,0,0,0-3.13-3.73c-2.87-2.4-6-4.4-9.11-6.55-2.78-1.92-5.63-3.75-8.35-5.75a5.93,5.93,0,0,1-2.41-5.5,4.89,4.89,0,0,1,1.9-3c1.81-1.24,4.13-1.27,6.24-1a10.43,10.43,0,0,1,6.93,3.73h0c1.11,1.34,1.74,3,2.76,4.39a21.29,21.29,0,0,0,6.42,3.57,9.27,9.27,0,0,0-.85-3.4c-.63-1.62-1.27-3.23-2-4.81a47.1,47.1,0,0,0-3.06-5.33c-1.61.77-3.42.44-5.08.06a33.33,33.33,0,0,0-7.26-1Z" transform="translate(-223.78 -326.42)"/><path d="M420.81,371.61c-5.86.06-11.72-.05-17.58.06-.05,1.07,1.23,1.13,1.9,1.63,1.74,1.07,2.14,3.3,2,5.19,0,1.57,0,3.14,0,4.71l0,.18a11.51,11.51,0,0,0-.06,1.88c0,2.42,0,4.83,0,7.25a17.45,17.45,0,0,0,.1,2.94l0-.19.11.5-.15.21c-.1,2,0,3.94,0,5.91q0,2.15,0,4.31a13.22,13.22,0,0,1-1.07,4.19l.06.19-.17,0a21.14,21.14,0,0,1-4.15,4.89c4.85.12,9-2.86,13.64-3.77a30.76,30.76,0,0,1,5.42-.5c.32-.9-.78-1.13-1.37-1.45a4.53,4.53,0,0,1-2.43-4c0-1.42,0-2.84,0-4.26s0-2.78,0-4.17a2.32,2.32,0,0,1,2.27-2.31c4,0,8,0,12.06,0a4.31,4.31,0,0,0,1,.43,4.76,4.76,0,0,1,.89,2.26L433,398l.14.49a7.37,7.37,0,0,0-.09,2c0,1.74,0,3.47,0,5.21a4.62,4.62,0,0,1-2.39,4.07c-.61.35-1.68.51-1.5,1.46,5.85,0,11.71,0,17.56,0,.37-.86-.73-1.07-1.28-1.38A4.53,4.53,0,0,1,443,406c0-1.38,0-2.75,0-4.13.06-2.09,0-4.19,0-6.28.07-2.38,0-4.76,0-7.13.09-3.22,0-6.44,0-9.66a7.87,7.87,0,0,1,.58-3.87,4.11,4.11,0,0,1,2.28-2c.45-.22,1.32-.54.91-1.21q-8.77-.07-17.55,0c-.13.94.95,1.09,1.56,1.46a4.67,4.67,0,0,1,2.34,3.91c-.05,3,0,6,0,9a2.7,2.7,0,0,1-.89,1.87,3.47,3.47,0,0,1-1.47.4H419.54a2.6,2.6,0,0,1-2.35-1.25,33.73,33.73,0,0,1-.17-5.07c0-.59,0-1.18,0-1.76s0-.95,0-1.42c-.17-2,.21-4.57,2.24-5.59.6-.39,1.9-.56,1.54-1.55Z" transform="translate(-223.78 -326.42)"/><path d="M453.89,385.65a10.53,10.53,0,0,0-1.47.09,3.33,3.33,0,0,0-1.36.54c.25,1.37.49,2.91-.25,4.18-.29.55-.9.8-1.3,1.25a4.56,4.56,0,0,0-3.5,2.22c-.2.24-.35.83.15.78a101.5,101.5,0,0,1,12.14.79c0-.55,0-1.09,0-1.63,0-.94,0-1.87,0-2.8,0-1.62,0-3.24,0-4.87A26.53,26.53,0,0,0,453.89,385.65Z" transform="translate(-223.78 -326.42)"/><path d="M471,391.34c0,2.48,0,5,0,7.45l.09-.15a64.06,64.06,0,0,1,11.43,5.91,30.22,30.22,0,0,0-5-7.79,29.46,29.46,0,0,0-6.46-5.41Z" transform="translate(-223.78 -326.42)"/><path d="M458.9,371.61c-2,0-3.92,0-5.88.1,0,.14,0,.42,0,.55,1.54.82,3.48.81,4.81,2.06a4.49,4.49,0,0,1,1.52,4.19c0,4.28,0,8.57,0,12.85,0,2.44,0,4.88,0,7.32-.05,1,0,2,0,3,0,1.54,0,3.07,0,4.61-.57,2.12-2.67,3.32-4.69,3.72-.64.24-1.78.24-1.72,1.18a11.22,11.22,0,0,0,2.15,0h.77c6.48.1,13,0,19.46,0,.42,0,1.28.13,1.1-.57-.79-.63-1.87-.65-2.79-1a5.73,5.73,0,0,1-3.25-2.49l-.22,0,.07-.22a14.76,14.76,0,0,1-.22-3.76c0-2.09,0-4.17,0-6.26,0-2.72,0-5.45,0-8.17,0-3.05,0-6.11,0-9.16.07-1.37-.25-2.87.53-4.09a6.25,6.25,0,0,1,4.2-2.61c.65-.24,1.72-.24,1.76-1.15-2.58-.23-5.17,0-7.75-.1-3.27,0-6.54,0-9.81,0Z" transform="translate(-223.78 -326.42)"/><path d="M544.19,352c-2.46.27-4.85,1-7.28,1.5C530.29,355,523.66,356.46,517,358c-.38,0-1.05.53-.52.86,1.55.57,3.36.72,4.55,2,1.6,1.48,1.79,3.76,1.69,5.8s0,3.83,0,5.75c0,3,0,6.09,0,9.14-.07,1.87,0,3.74,0,5.61-2.9-2.42-5.79-4.87-8.69-7.28s-6-5-9-7.56c-3.63-3.06-7.29-6.1-10.92-9.17-3.89.56-7.77,1.16-11.66,1.71-.61.19-1.88-.08-1.76.89,1,.88,2.5.64,3.62,1.28a5.1,5.1,0,0,1,2.82,5.19q0,4.41,0,8.82c0,2.49,0,5,0,7.47q0,3.43,0,6.87,0,3,0,6a9.31,9.31,0,0,1-.74,4.71,7.9,7.9,0,0,1-3.57,3.42,7.92,7.92,0,0,0-2,1.13c-.27.69.66.61,1.08.62,1.74,0,3.48.06,5.22-.05h.16c4.58.11,9.17,0,13.75,0,2.5-.05,5,.11,7.5-.08.47-.53-.31-.89-.69-1.07a9.84,9.84,0,0,1-4-2.72,7.64,7.64,0,0,1-1.59-5.4c0-1.55,0-3.11,0-4.66,0-2.75,0-5.5,0-8.26,0-2.31,0-4.63,0-6.94,0-1.5,0-3,0-4.51,1.25,1,2.46,2.09,3.72,3.11,2,1.66,3.92,3.32,5.9,5,3.61,3.06,7.26,6.09,10.87,9.16,0,.2,0,.59,0,.79a25.21,25.21,0,0,0,1,6.6,19.34,19.34,0,0,0,1.52,3.9,19,19,0,0,0,2.71,4.06,21.46,21.46,0,0,0,8.18,5.94c.53.21,1.38.43,1.62-.29.23-2.85.07-5.72.08-8.58.07-3.18,0-6.37,0-9.56,0-3.45.07-6.91-.06-10.36.13-4,0-8.07,0-12.11.06-4.59,0-9.19,0-13.79.11-3.29,2.32-6.17,5-7.86.49-.45,1.51-.74,1.29-1.56Z" transform="translate(-223.78 -326.42)"/><path d="M299.19,424.08c-3.92,0-7.84,0-11.76,0,.05.72.93.67,1.43.92a2.94,2.94,0,0,1,2.23,2.73q0,5,0,10a2.93,2.93,0,0,1-2.22,2.78c-.52.25-1.34.21-1.46.91,3.93.09,7.86,0,11.79,0,.48-.07,1.13.17,1.44-.33a13.37,13.37,0,0,0-1.9-.76,2.85,2.85,0,0,1-1.86-2.64c0-3.15,0-6.3,0-9.44a3.06,3.06,0,0,1,.76-2.42c.78-.9,2.06-.92,3-1.54-.37-.43-1-.25-1.45-.29Z" transform="translate(-223.78 -326.42)"/><path d="M323.58,424c-3,.12-6,0-9,.07l.08.46c1.22.47,2.6,1.18,2.74,2.66.1,3.52,0,7,0,10.56a2.9,2.9,0,0,1-2.13,2.74c-.56.24-1.32.25-1.61.89,2,.21,4,0,6,.1.58-.05,1.28.16,1.75-.28-.64-.52-1.51-.82-1.91-1.59a4.63,4.63,0,0,1-.44-2.43c0-3.1,0-6.2,0-9.29.65,1.24,1,2.61,1.8,3.79l-.08.26.35.47c1.29,3.07,2.71,6.08,4,9.15a3.93,3.93,0,0,0,1.67-2.06c1.68-3.75,3.35-7.51,5-11.26,0,3.08,0,6.16,0,9.24a3.62,3.62,0,0,1-.89,2.74c-.45.43-1.27.53-1.36,1.25,3.44.06,6.89,0,10.34,0,.48-.08,1.15.19,1.45-.34-.87-.51-2-.59-2.74-1.26a2.69,2.69,0,0,1-1-2.12q0-5,0-10a2.85,2.85,0,0,1,1.74-2.71c.46-.25,1.14-.31,1.23-.94-2.91-.06-5.82,0-8.73,0-1.43,3.11-2.79,6.26-4.2,9.38-1.43-3.13-2.78-6.29-4.22-9.41Z" transform="translate(-223.78 -326.42)"/><path d="M356.54,424.08a2.05,2.05,0,0,0-1.15.23,7.69,7.69,0,0,0,1.56.84,2.84,2.84,0,0,1,1.53,2.62c0,3.33,0,6.67,0,10a2.92,2.92,0,0,1-2.18,2.77c-.52.26-1.4.2-1.49.95q6.56,0,13.12,0c0-.67-.77-.66-1.24-.87a3.08,3.08,0,0,1-2.4-2.43c-.08-1.17,0-2.35,0-3.53A14.76,14.76,0,0,0,370,434a6.2,6.2,0,0,0,3.78-3.39,4,4,0,0,0-1-4.1,9.05,9.05,0,0,0-6.39-2.42c-3.15,0-6.3,0-9.45,0h-.4Zm7.72,1.22a4.07,4.07,0,0,1,3.61,2.9,4.15,4.15,0,0,1-1.26,4.26,8,8,0,0,0-1,.62,7.56,7.56,0,0,1-1.35.32c0-2.7,0-5.4,0-8.1Z" transform="translate(-223.78 -326.42)"/><path d="M396.62,423.67c.25.58.51,1.16.76,1.75q-1,2.19-2,4.41l-.38.83c-1.22,2.71-2.41,5.44-3.64,8.15a3.05,3.05,0,0,1-1.89,1.74c-.53.25-1.35.21-1.5.92,2.13.09,4.27,0,6.4,0,.48-.07,1.13.17,1.45-.33-.83-.59-2.36-.47-2.58-1.68.06-1.34.87-2.5,1.38-3.72,2.46,0,4.92,0,7.39,0,.42,1,1,2,1.31,3.12a1.23,1.23,0,0,1-.8,1.56c-.57.31-1.51.23-1.67,1,3.89,0,7.78.06,11.67,0-.17-.7-1-.67-1.52-.92a3.14,3.14,0,0,1-2-2q-3.31-7.45-6.63-14.89h-5.77Zm1.69,3.81q1.47,3.31,2.94,6.62h-5.89Q396.83,430.79,398.31,427.48Z" transform="translate(-223.78 -326.42)"/><path d="M436.69,424.08a11,11,0,0,0-5.63,1.46,8.14,8.14,0,0,0-3.73,10.5l.27.38a10,10,0,0,0,8.25,5.05c2.9.19,6.1-.5,8.11-2.74a4.66,4.66,0,0,0,1.4-3,20.76,20.76,0,0,1-1.94,2.22,6.51,6.51,0,0,1-8.47-.43,7.28,7.28,0,0,1,.77-10.71,5.6,5.6,0,0,1,7,.65,16.33,16.33,0,0,1,2,2.72,14.71,14.71,0,0,0-.18-5.09c-.68.06-1.35.24-2,.26-.79-.16-1.53-.53-2.3-.76A12.46,12.46,0,0,0,436.69,424.08Z" transform="translate(-223.78 -326.42)"/><path d="M460.86,424.09c0,1.75,0,3.5,0,5.25.34,0,.69,0,.77-.41a4.59,4.59,0,0,1,1.49-2.22c1.36-1,3.13-.6,4.7-.67,0,3.92,0,7.83,0,11.75a2.94,2.94,0,0,1-2.26,2.78c-.51.23-1.3.22-1.44.89,4.41.05,8.83.15,13.24,0-.6-.94-2-.7-2.74-1.5-1.67-1.38-.76-3.74-1-5.58,0-.13,0-.38,0-.51.12-2.59,0-5.19.05-7.78,1.69.05,3.69-.35,5,1,.86.63.75,2,1.73,2.49a38.88,38.88,0,0,0,.15-5.42Z" transform="translate(-223.78 -326.42)"/></svg>